<svg id="Layer_1" data-name="Layer 1" xmlns="http://www.w3.org/2000/svg" viewBox="0 0 192.19 192.24"><defs><style>.cls-1{fill:#fff;}.cls-2{fill:#a1d8e5;}.cls-3{fill:#93c4c9;}</style></defs><title>logo-blue</title><rect class="cls-1" y="0.11" width="192" height="192"/><path class="cls-2" d="M434.19,242.89h-8.27V243H250.27v-.06H242V434.56h.38v.57H434v-.57h.15Zm-8.27,8.32V426.87H250.27V251.21Z" transform="translate(-242 -242.89)"/><rect class="cls-2" x="19.75" y="128.3" width="152.92" height="9.82"/><rect class="cls-3" x="40.67" y="147.41" width="111.07" height="9.82"/><polygon class="cls-3" points="159.07 63.5 159.07 63.55 159.05 63.52 144.49 75.32 144.49 63.5 133.55 63.5 133.55 63.6 133.48 63.52 118.96 75.29 118.96 63.5 108.02 63.5 108.02 115.55 118.96 115.55 118.96 79.13 133.55 67.31 133.55 115.55 144.49 115.55 144.49 79.16 159.07 67.33 159.07 115.55 170.02 115.55 170.02 63.5 159.07 63.5"/><polygon class="cls-2" points="101.97 34.44 101.97 34.52 101.92 34.47 79.23 52.86 79.23 34.44 62.19 34.44 62.19 34.6 62.08 34.47 39.45 52.81 39.45 34.44 22.41 34.44 22.41 115.55 39.45 115.55 39.45 58.8 62.19 40.37 62.19 115.55 79.23 115.55 79.23 58.84 101.97 40.42 101.97 115.55 119.01 115.55 119.01 34.44 101.97 34.44"/></svg>